# This file uses feet as units for non-parametric coordinates.

g default
v -17.721048 5.267878 14.723866
v 18.727615 5.267879 13.752404
v -17.721048 40.154823 14.723871
v 18.727615 40.154823 13.752409
v -19.050871 5.267810 15.668439
v 20.105865 5.267813 14.624800
v -19.050871 40.154884 15.668446
v 20.105865 40.154881 14.624805
v -13.867456 40.153358 18.341537
v -9.402875 40.153362 20.886639
v -4.459501 40.153362 22.396694
v 0.731894 40.153362 22.815536
v 5.893608 40.153358 22.120756
v 10.749528 40.153366 20.349520
v 15.072200 40.153358 17.570211
v 15.072200 5.269333 17.570208
v 10.749528 5.269329 20.349514
v 5.893610 5.269329 22.120750
v 0.731895 5.269329 22.815531
v -4.459500 5.269329 22.396690
v -9.402875 5.269329 20.886633
v -13.867456 5.269333 18.341532
v -14.908651 5.269053 19.553236
v -10.113092 5.269056 22.287012
v -4.803236 5.269056 23.909018
v 0.773030 5.269056 24.358910
v 6.317413 5.269056 23.612619
v 11.533334 5.269056 21.710072
v 16.176460 5.269053 18.724728
v 16.176460 40.153641 18.724733
v 11.533334 40.153641 21.710077
v 6.317414 40.153641 23.612627
v 0.773030 40.153633 24.358915
v -4.803235 40.153637 23.909023
v -10.113092 40.153637 22.287018
v -14.908651 40.153637 19.553242
v -15.902588 40.153355 16.654686
v 17.014584 5.269338 15.777345
v -17.094664 5.269049 17.741323
v 18.262856 40.153641 16.798950
v 17.014584 40.153355 15.777351
v -15.902588 5.269339 16.654680
v 18.262856 5.269051 16.798944
v -17.094664 40.153645 17.741329
v -11.698009 40.153366 19.745462
v -6.979201 40.153362 21.774353
v -1.877588 40.153362 22.745316
v 3.333932 40.153358 22.606413
v 8.376579 40.153362 21.365078
v 12.980615 40.153358 19.087706
v 12.980615 5.269329 19.087700
v 8.376580 5.269329 21.365072
v 3.333932 5.269329 22.606407
v -1.877587 5.269329 22.745310
v -6.979200 5.269329 21.774347
v -11.698009 5.269329 19.745457
v -12.578373 5.269056 21.061235
v -7.509737 5.269056 23.240538
v -2.029909 5.269056 24.283484
v 3.567972 5.269056 24.134283
v 8.984464 5.269056 22.800920
v 13.929818 5.269056 20.354717
v 13.929818 40.153641 20.354723
v 8.984464 40.153637 22.800926
v 3.567972 40.153637 24.134289
v -2.029909 40.153637 24.283489
v -7.509736 40.153637 23.240543
v -12.578373 40.153637 21.061241
vt 0.408302 0.671085
vt 0.398522 0.671085
vt 0.398522 0.665181
vt 0.408302 0.665181
vt 0.388731 0.671085
vt 0.388731 0.665181
vt 0.369878 0.655239
vt 0.379684 0.655239
vt 0.379684 0.661153
vt 0.369878 0.661153
vt 0.389499 0.655239
vt 0.389499 0.661153
vt 0.330342 0.671085
vt 0.320526 0.671085
vt 0.447993 0.655239
vt 0.457951 0.655239
vt 0.320526 0.665181
vt 0.330342 0.665181
vt 0.457951 0.661153
vt 0.447993 0.661153
vt 0.467568 0.655239
vt 0.467568 0.661153
vt 0.310696 0.671085
vt 0.310696 0.665181
vt 0.349661 0.671085
vt 0.340006 0.671085
vt 0.340006 0.665181
vt 0.349661 0.665181
vt 0.369139 0.671085
vt 0.359378 0.671085
vt 0.359378 0.665181
vt 0.369139 0.665181
vt 0.378930 0.671085
vt 0.378930 0.665181
vt 0.447148 0.665181
vt 0.457088 0.665181
vt 0.457088 0.671085
vt 0.447148 0.671085
vt 0.467407 0.665181
vt 0.467407 0.671085
vt 0.427679 0.665181
vt 0.437340 0.665181
vt 0.437340 0.671085
vt 0.427679 0.671085
vt 0.418021 0.665181
vt 0.418021 0.671085
vt 0.428483 0.655239
vt 0.438161 0.655239
vt 0.438161 0.661153
vt 0.428483 0.661153
vt 0.409082 0.655239
vt 0.418812 0.655239
vt 0.418812 0.661153
vt 0.409082 0.661153
vt 0.399305 0.655239
vt 0.399305 0.661153
vt 0.331001 0.661153
vt 0.321178 0.661153
vt 0.321178 0.655239
vt 0.331001 0.655239
vt 0.311096 0.661153
vt 0.311096 0.655239
vt 0.350349 0.661153
vt 0.340677 0.661153
vt 0.340677 0.655239
vt 0.350349 0.655239
vt 0.360082 0.661153
vt 0.360082 0.655239
vt 0.099652 0.040936
vt 0.112035 0.040936
vt 0.112036 0.195296
vt 0.099652 0.195296
vt 0.124442 0.040936
vt 0.124442 0.195296
vt 0.198301 0.040936
vt 0.210864 0.040936
vt 0.210864 0.195296
vt 0.198301 0.195296
vt 0.223476 0.040931
vt 0.223476 0.195301
vt 0.173836 0.040936
vt 0.186019 0.040936
vt 0.186019 0.195296
vt 0.173836 0.195296
vt 0.149233 0.040936
vt 0.161568 0.040936
vt 0.161568 0.195296
vt 0.149233 0.195296
vt 0.136850 0.040936
vt 0.136850 0.195296
vt 0.050585 0.195296
vt 0.038021 0.195296
vt 0.038021 0.040936
vt 0.050585 0.040936
vt 0.025409 0.195301
vt 0.025409 0.040931
vt 0.075049 0.195296
vt 0.062866 0.195296
vt 0.062866 0.040936
vt 0.075049 0.040936
vt 0.087317 0.195296
vt 0.087317 0.040936
vt 0.229086 0.040498
vt 0.236304 0.040499
vt 0.236304 0.194869
vt 0.229086 0.194869
vt 0.017825 0.194495
vt 0.010607 0.194495
vt 0.010607 0.040125
vt 0.017825 0.040125
vt 0.361151 0.835165
vt 0.366867 0.835165
vt 0.366866 0.911697
vt 0.361151 0.911697
vt 0.372594 0.835165
vt 0.372594 0.911697
vt 0.406686 0.835165
vt 0.412485 0.835165
vt 0.412485 0.911697
vt 0.406686 0.911697
vt 0.418304 0.835162
vt 0.418304 0.911700
vt 0.395393 0.835165
vt 0.401017 0.835165
vt 0.401017 0.911697
vt 0.395393 0.911697
vt 0.384037 0.835165
vt 0.389731 0.835165
vt 0.389731 0.911697
vt 0.384037 0.911697
vt 0.378321 0.835165
vt 0.378321 0.911697
vt 0.338501 0.911697
vt 0.332702 0.911697
vt 0.332702 0.835165
vt 0.338501 0.835165
vt 0.326883 0.911700
vt 0.326883 0.835162
vt 0.349794 0.911697
vt 0.344171 0.911697
vt 0.344171 0.835165
vt 0.349794 0.835165
vt 0.355457 0.911697
vt 0.355457 0.835165
vn 0.000014 -1.000000 -0.000176
vn 0.000014 -1.000000 -0.000176
vn 0.000033 -1.000000 -0.000173
vn 0.000033 -1.000000 -0.000173
vn -0.000005 -1.000000 -0.000177
vn -0.000005 -1.000000 -0.000177
vn 0.000014 -1.000000 -0.000176
vn 0.000014 -1.000000 -0.000176
vn -0.000024 1.000000 -0.000176
vn -0.000024 1.000000 -0.000176
vn -0.000042 1.000000 -0.000172
vn -0.000043 1.000000 -0.000172
vn -0.000005 1.000000 -0.000178
vn -0.000005 1.000000 -0.000178
vn -0.000024 1.000000 -0.000176
vn -0.000024 1.000000 -0.000176
vn -0.239131 0.000000 -0.970987
vn -0.133451 0.000000 -0.991055
vn -0.239131 0.000000 -0.970987
vn -0.133451 0.000000 -0.991055
vn -0.133451 0.000000 -0.991055
vn -0.026644 0.000000 -0.999645
vn -0.133451 0.000000 -0.991055
vn -0.026644 0.000000 -0.999645
vn -0.187070 -0.000000 0.982347
vn -0.080471 -0.000000 0.996757
vn -0.187070 -0.000000 0.982347
vn -0.080471 -0.000000 0.996757
vn -0.080471 -0.000000 0.996757
vn 0.026644 -0.000000 0.999645
vn -0.080471 -0.000000 0.996757
vn 0.026644 -0.000000 0.999645
vn 0.534835 0.000000 -0.844956
vn 0.534835 0.000000 -0.844956
vn 0.534835 0.000000 -0.844956
vn 0.534835 0.000000 -0.844956
vn -0.579085 0.000000 -0.815267
vn -0.579085 0.000000 -0.815267
vn -0.579085 0.000000 -0.815267
vn -0.579085 0.000000 -0.815267
vn -0.000111 -1.000000 -0.000137
vn -0.000240 -1.000000 0.000088
vn -0.000112 -1.000000 -0.000136
vn -0.000252 -1.000000 0.000111
vn -0.000371 -1.000000 0.000328
vn -0.000252 -1.000000 0.000111
vn -0.000371 -1.000000 0.000328
vn -0.000240 -1.000000 0.000088
vn -0.000077 -1.000000 -0.000156
vn -0.000094 -1.000000 -0.000147
vn -0.000078 -1.000000 -0.000156
vn -0.000094 -1.000000 -0.000146
vn -0.000094 -1.000000 -0.000147
vn -0.000111 -1.000000 -0.000137
vn -0.000094 -1.000000 -0.000146
vn -0.000112 -1.000000 -0.000136
vn -0.000042 -1.000000 -0.000171
vn -0.000060 -1.000000 -0.000165
vn -0.000042 -1.000000 -0.000171
vn -0.000060 -1.000000 -0.000164
vn -0.000060 -1.000000 -0.000165
vn -0.000077 -1.000000 -0.000156
vn -0.000060 -1.000000 -0.000164
vn -0.000078 -1.000000 -0.000156
vn -0.000005 -1.000000 -0.000177
vn -0.000023 -1.000000 -0.000175
vn -0.000005 -1.000000 -0.000177
vn -0.000024 -1.000000 -0.000175
vn -0.000023 -1.000000 -0.000175
vn -0.000042 -1.000000 -0.000171
vn -0.000024 -1.000000 -0.000175
vn -0.000042 -1.000000 -0.000171
vn 0.000258 -1.000000 0.000096
vn 0.000245 -1.000000 0.000074
vn 0.000105 -1.000000 -0.000142
vn 0.000104 -1.000000 -0.000142
vn 0.000389 -1.000000 0.000307
vn 0.000389 -1.000000 0.000307
vn 0.000258 -1.000000 0.000096
vn 0.000245 -1.000000 0.000074
vn 0.000087 -1.000000 -0.000151
vn 0.000086 -1.000000 -0.000151
vn 0.000069 -1.000000 -0.000160
vn 0.000068 -1.000000 -0.000160
vn 0.000105 -1.000000 -0.000142
vn 0.000104 -1.000000 -0.000142
vn 0.000087 -1.000000 -0.000151
vn 0.000086 -1.000000 -0.000151
vn 0.000051 -1.000000 -0.000167
vn 0.000051 -1.000000 -0.000168
vn 0.000033 -1.000000 -0.000173
vn 0.000033 -1.000000 -0.000173
vn 0.000069 -1.000000 -0.000160
vn 0.000068 -1.000000 -0.000160
vn 0.000051 -1.000000 -0.000167
vn 0.000051 -1.000000 -0.000168
vn 0.000104 1.000000 -0.000142
vn 0.000245 1.000000 0.000075
vn 0.000105 1.000000 -0.000142
vn 0.000259 1.000000 0.000098
vn 0.000389 1.000000 0.000309
vn 0.000259 1.000000 0.000098
vn 0.000389 1.000000 0.000309
vn 0.000245 1.000000 0.000075
vn 0.000069 1.000000 -0.000161
vn 0.000086 1.000000 -0.000152
vn 0.000070 1.000000 -0.000161
vn 0.000087 1.000000 -0.000152
vn 0.000086 1.000000 -0.000152
vn 0.000104 1.000000 -0.000142
vn 0.000087 1.000000 -0.000152
vn 0.000105 1.000000 -0.000142
vn 0.000033 1.000000 -0.000174
vn 0.000051 1.000000 -0.000169
vn 0.000033 1.000000 -0.000174
vn 0.000052 1.000000 -0.000169
vn 0.000051 1.000000 -0.000169
vn 0.000069 1.000000 -0.000161
vn 0.000052 1.000000 -0.000169
vn 0.000070 1.000000 -0.000161
vn -0.000005 1.000000 -0.000178
vn 0.000014 1.000000 -0.000177
vn -0.000005 1.000000 -0.000178
vn 0.000014 1.000000 -0.000177
vn 0.000014 1.000000 -0.000177
vn 0.000033 1.000000 -0.000174
vn 0.000014 1.000000 -0.000177
vn 0.000033 1.000000 -0.000174
vn -0.000252 1.000000 0.000112
vn -0.000239 1.000000 0.000089
vn -0.000111 1.000000 -0.000136
vn -0.000111 1.000000 -0.000136
vn -0.000370 1.000000 0.000330
vn -0.000370 1.000000 0.000330
vn -0.000252 1.000000 0.000112
vn -0.000239 1.000000 0.000089
vn -0.000094 1.000000 -0.000147
vn -0.000094 1.000000 -0.000147
vn -0.000078 1.000000 -0.000157
vn -0.000077 1.000000 -0.000157
vn -0.000111 1.000000 -0.000136
vn -0.000111 1.000000 -0.000136
vn -0.000094 1.000000 -0.000147
vn -0.000094 1.000000 -0.000147
vn -0.000061 1.000000 -0.000166
vn -0.000060 1.000000 -0.000166
vn -0.000043 1.000000 -0.000172
vn -0.000042 1.000000 -0.000172
vn -0.000078 1.000000 -0.000157
vn -0.000077 1.000000 -0.000157
vn -0.000061 1.000000 -0.000166
vn -0.000060 1.000000 -0.000166
vn 0.591749 0.000000 -0.806122
vn 0.684368 0.000000 -0.729137
vn 0.591749 0.000000 -0.806122
vn 0.684368 0.000000 -0.729136
vn 0.727970 0.000000 -0.685609
vn 0.727970 0.000000 -0.685609
vn 0.684368 0.000000 -0.729137
vn 0.684368 0.000000 -0.729136
vn 0.395172 0.000000 -0.918607
vn 0.495046 0.000000 -0.868867
vn 0.395172 0.000000 -0.918607
vn 0.495046 0.000000 -0.868867
vn 0.495046 0.000000 -0.868867
vn 0.591749 0.000000 -0.806122
vn 0.495046 0.000000 -0.868867
vn 0.591749 0.000000 -0.806122
vn 0.187070 0.000000 -0.982347
vn 0.292288 0.000000 -0.956330
vn 0.187070 0.000000 -0.982347
vn 0.292288 0.000000 -0.956330
vn 0.292288 0.000000 -0.956330
vn 0.395172 0.000000 -0.918607
vn 0.292288 0.000000 -0.956330
vn 0.395172 0.000000 -0.918607
vn -0.026644 0.000000 -0.999645
vn 0.080471 0.000000 -0.996757
vn -0.026644 0.000000 -0.999645
vn 0.080471 0.000000 -0.996757
vn 0.080471 0.000000 -0.996757
vn 0.187070 0.000000 -0.982347
vn 0.080471 0.000000 -0.996757
vn 0.187070 0.000000 -0.982347
vn -0.633850 0.000000 -0.773456
vn -0.722236 0.000000 -0.691647
vn -0.633850 0.000000 -0.773456
vn -0.722236 0.000000 -0.691647
vn -0.763457 0.000000 -0.645859
vn -0.763457 0.000000 -0.645859
vn -0.722236 0.000000 -0.691647
vn -0.722236 0.000000 -0.691647
vn -0.443544 0.000000 -0.896253
vn -0.540626 0.000000 -0.841263
vn -0.443544 0.000000 -0.896253
vn -0.540626 0.000000 -0.841263
vn -0.540626 0.000000 -0.841263
vn -0.633850 0.000000 -0.773456
vn -0.540626 0.000000 -0.841263
vn -0.633850 0.000000 -0.773456
vn -0.239131 0.000000 -0.970987
vn -0.342815 0.000000 -0.939403
vn -0.239131 0.000000 -0.970987
vn -0.342815 0.000000 -0.939403
vn -0.342815 0.000000 -0.939403
vn -0.443544 0.000000 -0.896253
vn -0.342815 0.000000 -0.939403
vn -0.443544 0.000000 -0.896253
vn 0.633849 -0.000000 0.773457
vn 0.721886 -0.000000 0.692012
vn 0.633849 -0.000000 0.773457
vn 0.721886 -0.000000 0.692012
vn 0.721886 -0.000000 0.692012
vn 0.762807 -0.000000 0.646627
vn 0.721886 -0.000000 0.692012
vn 0.762807 -0.000000 0.646627
vn 0.443543 -0.000000 0.896253
vn 0.540626 -0.000000 0.841263
vn 0.443543 -0.000000 0.896253
vn 0.540626 -0.000000 0.841263
vn 0.540626 -0.000000 0.841263
vn 0.633849 -0.000000 0.773457
vn 0.540626 -0.000000 0.841263
vn 0.633849 -0.000000 0.773457
vn 0.239131 -0.000000 0.970987
vn 0.342815 -0.000000 0.939403
vn 0.239131 -0.000000 0.970987
vn 0.342815 -0.000000 0.939403
vn 0.342815 -0.000000 0.939403
vn 0.443543 -0.000000 0.896253
vn 0.342815 -0.000000 0.939403
vn 0.443543 -0.000000 0.896253
vn 0.026644 -0.000000 0.999645
vn 0.133452 -0.000000 0.991055
vn 0.026644 -0.000000 0.999645
vn 0.133452 -0.000000 0.991055
vn 0.133452 -0.000000 0.991055
vn 0.239131 -0.000000 0.970987
vn 0.133452 -0.000000 0.991055
vn 0.239131 -0.000000 0.970987
vn -0.591749 -0.000000 0.806122
vn -0.683999 -0.000000 0.729483
vn -0.591749 -0.000000 0.806122
vn -0.683999 -0.000000 0.729483
vn -0.683999 -0.000000 0.729483
vn -0.727279 -0.000000 0.686342
vn -0.683999 -0.000000 0.729483
vn -0.727279 -0.000000 0.686342
vn -0.395172 -0.000000 0.918607
vn -0.495046 -0.000000 0.868867
vn -0.395172 -0.000000 0.918607
vn -0.495046 -0.000000 0.868867
vn -0.495046 -0.000000 0.868867
vn -0.591749 -0.000000 0.806122
vn -0.495046 -0.000000 0.868867
vn -0.591749 -0.000000 0.806122
vn -0.187070 -0.000000 0.982347
vn -0.292288 -0.000000 0.956330
vn -0.187070 -0.000000 0.982347
vn -0.292288 -0.000000 0.956330
vn -0.292288 -0.000000 0.956330
vn -0.395172 -0.000000 0.918607
vn -0.292288 -0.000000 0.956330
vn -0.395172 -0.000000 0.918607
s 1
g SM_Shelf_06e
f 54/2/1 59/3/2 20/1/3
f 20/1/3 59/3/2 25/4/4
s 2
f 19/5/5 26/6/6 54/2/7
f 54/2/7 26/6/6 59/3/8
s 3
f 48/8/9 65/9/10 13/7/11
f 13/7/11 65/9/10 32/10/12
s 4
f 12/11/13 33/12/14 48/8/15
f 48/8/15 33/12/14 65/9/16
s 5
f 18/111/17 53/112/18 13/114/19
f 13/114/19 53/112/18 48/113/20
s 6
f 53/112/21 19/115/22 48/113/23
f 48/113/23 19/115/22 12/116/24
s 7
f 25/69/25 59/70/26 34/72/27
f 34/72/27 59/70/26 66/71/28
s 8
f 59/70/29 26/73/30 66/71/31
f 66/71/31 26/73/30 33/74/32
s 9
f 2/104/33 4/105/34 6/103/35
f 6/103/35 4/105/34 8/106/36
s 10
f 3/108/37 1/109/38 7/107/39
f 7/107/39 1/109/38 5/110/40
s 11
f 16/13/41 38/14/42 29/18/43
f 29/18/43 38/14/42 43/17/44
s 12
f 6/24/45 43/17/46 2/23/47
f 2/23/47 43/17/46 38/14/48
s 13
f 17/25/49 51/26/50 28/28/51
f 28/28/51 51/26/50 62/27/52
s 14
f 51/26/53 16/13/54 62/27/55
f 62/27/55 16/13/54 29/18/56
s 15
f 18/29/57 52/30/58 27/32/59
f 27/32/59 52/30/58 61/31/60
s 16
f 52/30/61 17/25/62 61/31/63
f 61/31/63 17/25/62 28/28/64
s 17
f 19/5/65 53/33/66 26/6/67
f 26/6/67 53/33/66 60/34/68
s 18
f 53/33/69 18/29/70 60/34/71
f 60/34/71 18/29/70 27/32/72
s 19
f 39/36/73 42/37/74 23/35/75
f 23/35/75 42/37/74 22/38/76
s 20
f 5/39/77 1/40/78 39/36/79
f 39/36/79 1/40/78 42/37/80
s 21
f 57/42/81 56/43/82 24/41/83
f 24/41/83 56/43/82 21/44/84
s 22
f 23/35/85 22/38/86 57/42/87
f 57/42/87 22/38/86 56/43/88
s 23
f 58/45/89 55/46/90 25/4/91
f 25/4/91 55/46/90 20/1/92
s 24
f 24/41/93 21/44/94 58/45/95
f 58/45/95 21/44/94 55/46/96
s 25
f 9/15/97 37/16/98 36/20/99
f 36/20/99 37/16/98 44/19/100
s 26
f 7/22/101 44/19/102 3/21/103
f 3/21/103 44/19/102 37/16/104
s 27
f 10/47/105 45/48/106 35/50/107
f 35/50/107 45/48/106 68/49/108
s 28
f 45/48/109 9/15/110 68/49/111
f 68/49/111 9/15/110 36/20/112
s 29
f 11/51/113 46/52/114 34/54/115
f 34/54/115 46/52/114 67/53/116
s 30
f 46/52/117 10/47/118 67/53/119
f 67/53/119 10/47/118 35/50/120
s 31
f 12/11/121 47/55/122 33/12/123
f 33/12/123 47/55/122 66/56/124
s 32
f 47/55/125 11/51/126 66/56/127
f 66/56/127 11/51/126 34/54/128
s 33
f 40/58/129 41/59/130 30/57/131
f 30/57/131 41/59/130 15/60/132
s 34
f 8/61/133 4/62/134 40/58/135
f 40/58/135 4/62/134 41/59/136
s 35
f 63/64/137 50/65/138 31/63/139
f 31/63/139 50/65/138 14/66/140
s 36
f 30/57/141 15/60/142 63/64/143
f 63/64/143 15/60/142 50/65/144
s 37
f 64/67/145 49/68/146 32/10/147
f 32/10/147 49/68/146 13/7/148
s 38
f 31/63/149 14/66/150 64/67/151
f 64/67/151 14/66/150 49/68/152
s 39
f 22/117/153 42/118/154 9/120/155
f 9/120/155 42/118/154 37/119/156
s 40
f 1/121/157 3/122/158 42/118/159
f 42/118/159 3/122/158 37/119/160
s 41
f 21/123/161 56/124/162 10/126/163
f 10/126/163 56/124/162 45/125/164
s 42
f 56/124/165 22/117/166 45/125/167
f 45/125/167 22/117/166 9/120/168
s 43
f 20/127/169 55/128/170 11/130/171
f 11/130/171 55/128/170 46/129/172
s 44
f 55/128/173 21/123/174 46/129/175
f 46/129/175 21/123/174 10/126/176
s 45
f 19/115/177 54/131/178 12/116/179
f 12/116/179 54/131/178 47/132/180
s 46
f 54/131/181 20/127/182 47/132/183
f 47/132/183 20/127/182 11/130/184
s 47
f 15/133/185 41/134/186 16/136/187
f 16/136/187 41/134/186 38/135/188
s 48
f 4/137/189 2/138/190 41/134/191
f 41/134/191 2/138/190 38/135/192
s 49
f 14/139/193 50/140/194 17/142/195
f 17/142/195 50/140/194 51/141/196
s 50
f 50/140/197 15/133/198 51/141/199
f 51/141/199 15/133/198 16/136/200
s 51
f 13/114/201 49/143/202 18/111/203
f 18/111/203 49/143/202 52/144/204
s 52
f 49/143/205 14/139/206 52/144/207
f 52/144/207 14/139/206 17/142/208
s 53
f 29/75/209 43/76/210 30/78/211
f 30/78/211 43/76/210 40/77/212
s 54
f 43/76/213 6/79/214 40/77/215
f 40/77/215 6/79/214 8/80/216
s 55
f 28/81/217 62/82/218 31/84/219
f 31/84/219 62/82/218 63/83/220
s 56
f 62/82/221 29/75/222 63/83/223
f 63/83/223 29/75/222 30/78/224
s 57
f 27/85/225 61/86/226 32/88/227
f 32/88/227 61/86/226 64/87/228
s 58
f 61/86/229 28/81/230 64/87/231
f 64/87/231 28/81/230 31/84/232
s 59
f 26/73/233 60/89/234 33/74/235
f 33/74/235 60/89/234 65/90/236
s 60
f 60/89/237 27/85/238 65/90/239
f 65/90/239 27/85/238 32/88/240
s 61
f 36/91/241 44/92/242 23/94/243
f 23/94/243 44/92/242 39/93/244
s 62
f 44/92/245 7/95/246 39/93/247
f 39/93/247 7/95/246 5/96/248
s 63
f 35/97/249 68/98/250 24/100/251
f 24/100/251 68/98/250 57/99/252
s 64
f 68/98/253 36/91/254 57/99/255
f 57/99/255 36/91/254 23/94/256
s 65
f 34/72/257 67/101/258 25/69/259
f 25/69/259 67/101/258 58/102/260
s 66
f 67/101/261 35/97/262 58/102/263
f 58/102/263 35/97/262 24/100/264
