# This file uses feet as units for non-parametric coordinates.

g default
v -1.876878 64.368797 22.738136
v 3.332838 44.506172 22.599279
v 3.569105 64.368805 24.141689
v -2.030649 44.506168 24.290936
v 18.635958 64.368797 13.830776
v -17.625345 64.368797 14.797241
v -17.625345 44.506172 14.797234
v 18.635958 44.506172 13.830769
v -18.945082 64.368805 15.773212
v 20.005812 64.368797 14.735062
v 20.005808 44.506172 14.735058
v -18.945086 44.506172 15.773209
v 16.714426 64.368805 16.073421
v 12.976183 64.368797 19.081795
v 8.373741 64.368797 21.358376
v 3.332838 64.368797 22.599285
v -15.587083 64.368797 16.934349
v -11.693897 64.368805 19.739323
v -6.976726 64.368797 21.767509
v -15.587083 44.506172 16.934345
v -11.693897 44.506172 19.739321
v -6.976724 44.506176 21.767506
v -1.876877 44.506176 22.738132
v 16.714422 44.506172 16.073420
v 12.976181 44.506172 19.081793
v 8.373742 44.506176 21.358372
v -16.767298 64.368797 18.052639
v -12.582644 64.368797 21.067616
v -7.512306 64.368797 23.247646
v -2.030648 64.368797 24.290939
v 17.952536 64.368797 17.127258
v 13.934419 64.368805 20.360859
v 8.987409 64.368805 22.807880
v 17.952532 44.506172 17.127254
v 13.934418 44.506172 20.360855
v 8.987407 44.506172 22.807877
v 3.569104 44.506172 24.141685
v -16.767298 44.506172 18.052635
v -12.582642 44.506172 21.067610
v -7.512307 44.506172 23.247641
v 14.984689 64.368797 17.631828
v 10.745869 64.368797 20.343170
v 5.891629 64.368797 22.113792
v 0.731701 64.368797 22.808334
v -13.776787 64.368797 18.398407
v -9.399561 64.368797 20.880104
v -4.457898 64.368805 22.389637
v -13.776787 44.506172 18.398401
v -9.399561 44.506172 20.880098
v -4.457896 44.506172 22.389633
v 0.731702 44.506172 22.808329
v 14.984687 44.506172 17.631828
v 10.745869 44.506168 20.343166
v 5.891630 44.506176 22.113789
v -14.821474 64.368797 19.626305
v -10.116534 64.368797 22.293800
v -4.804901 64.368797 23.916351
v 0.773228 64.368805 24.366390
v 16.093294 64.368797 18.802341
v 11.537128 64.368797 21.716671
v 6.319466 64.368797 23.619854
v 16.093294 44.506172 18.802334
v 11.537127 44.506172 21.716665
v 6.319465 44.506172 23.619848
v 0.773228 44.506172 24.366386
v -14.821471 44.506176 19.626301
v -10.116534 44.506176 22.293797
v -4.804902 44.506172 23.916344
vt 0.505618 0.852488
vt 0.511514 0.852488
vt 0.505995 0.860814
vt 0.511891 0.860814
vt 0.511514 0.855870
vt 0.511891 0.864196
vt 0.505618 0.855870
vt 0.499928 0.852488
vt 0.505995 0.864196
vt 0.500305 0.860814
vt 0.499928 0.855870
vt 0.500305 0.864196
vt 0.495163 0.860814
vt 0.494786 0.852488
vt 0.495163 0.864196
vt 0.494786 0.855870
vt 0.489773 0.860814
vt 0.489396 0.852488
vt 0.489773 0.864196
vt 0.489396 0.855870
vt 0.483899 0.852488
vt 0.483899 0.855870
vt 0.484277 0.860814
vt 0.226112 0.293251
vt 0.017022 0.203452
vt 0.484277 0.864196
vt 0.478368 0.852488
vt 0.478368 0.855870
vt 0.472811 0.852488
vt 0.472811 0.855870
vt 0.478745 0.860814
vt 0.017022 0.291342
vt 0.226112 0.205362
vt 0.478745 0.864196
vt 0.467238 0.852488
vt 0.467238 0.855870
vt 0.461660 0.852488
vt 0.473188 0.860814
vt 0.461660 0.855870
vt 0.473188 0.864196
vt 0.456087 0.852488
vt 0.467615 0.860814
vt 0.456087 0.855870
vt 0.467615 0.864196
vt 0.462037 0.860814
vt 0.450531 0.852488
vt 0.462037 0.864196
vt 0.450531 0.855870
vt 0.456464 0.860814
vt 0.445001 0.852488
vt 0.456464 0.864196
vt 0.445001 0.855870
vt 0.450908 0.860814
vt 0.439505 0.852488
vt 0.450908 0.864196
vt 0.439505 0.855870
vt 0.445378 0.860814
vt 0.434123 0.852488
vt 0.445378 0.864196
vt 0.434123 0.855870
vt 0.428992 0.852488
vt 0.439882 0.860814
vt 0.439882 0.864196
vt 0.434500 0.860814
vt 0.428992 0.855870
vt 0.423599 0.852488
vt 0.434500 0.864196
vt 0.423599 0.855870
vt 0.122623 0.204455
vt 0.135034 0.204455
vt 0.135034 0.292344
vt 0.122623 0.292344
vt 0.147421 0.204455
vt 0.147421 0.292344
vt 0.110212 0.292344
vt 0.110212 0.204455
vt 0.097825 0.292344
vt 0.097825 0.204455
vt 0.025510 0.204455
vt 0.038171 0.204455
vt 0.038171 0.292344
vt 0.025510 0.292344
vt 0.219736 0.292344
vt 0.207075 0.292344
vt 0.207075 0.204455
vt 0.219736 0.204455
vt 0.196001 0.292344
vt 0.196001 0.204455
vt 0.184220 0.292344
vt 0.184220 0.204455
vt 0.172033 0.292344
vt 0.172033 0.204455
vt 0.159761 0.292344
vt 0.159761 0.204455
vt 0.049245 0.204455
vt 0.049245 0.292344
vt 0.073213 0.292344
vt 0.061026 0.292344
vt 0.061026 0.204455
vt 0.073213 0.204455
vt 0.085485 0.292344
vt 0.085485 0.204455
vt 0.467236 0.869447
vt 0.472632 0.869447
vt 0.472632 0.910518
vt 0.467236 0.910518
vt 0.478017 0.869447
vt 0.478017 0.910518
vt 0.461840 0.910518
vt 0.461840 0.869447
vt 0.456455 0.910518
vt 0.456455 0.869447
vt 0.425017 0.869448
vt 0.430521 0.869447
vt 0.430521 0.910518
vt 0.425017 0.910518
vt 0.509455 0.910518
vt 0.503951 0.910518
vt 0.503951 0.869447
vt 0.509455 0.869447
vt 0.435335 0.869447
vt 0.435335 0.910518
vt 0.440457 0.869447
vt 0.440457 0.910518
vt 0.445755 0.869447
vt 0.445755 0.910518
vt 0.451090 0.869447
vt 0.451090 0.910518
vt 0.499136 0.910518
vt 0.499136 0.869447
vt 0.494014 0.910518
vt 0.494014 0.869447
vt 0.488716 0.910518
vt 0.488716 0.869447
vt 0.483381 0.910518
vt 0.483381 0.869447
vt 0.429369 0.860814
vt 0.429369 0.864196
vt 0.423977 0.860814
vt 0.423977 0.864196
vt 0.233375 0.205362
vt 0.233375 0.293251
vt 0.009758 0.291342
vt 0.009758 0.203452
vn -0.026643 0.000000 -0.999645
vn 0.080471 0.000000 -0.996757
vn -0.026643 0.000000 -0.999645
vn 0.080471 0.000000 -0.996757
vn 0.080471 0.000000 -0.996757
vn 0.187070 0.000000 -0.982347
vn 0.080471 0.000000 -0.996757
vn 0.187070 0.000000 -0.982347
vn 0.026644 -0.000000 0.999645
vn 0.133452 -0.000000 0.991055
vn 0.026644 -0.000000 0.999645
vn 0.133452 -0.000000 0.991055
vn 0.133452 -0.000000 0.991055
vn 0.239131 -0.000000 0.970987
vn 0.133452 -0.000000 0.991055
vn 0.239131 -0.000000 0.970987
vn -0.133452 0.000000 -0.991055
vn -0.133452 0.000000 -0.991055
vn -0.026643 0.000000 -0.999645
vn -0.026643 0.000000 -0.999645
vn -0.133452 0.000000 -0.991055
vn -0.239132 0.000000 -0.970987
vn -0.133452 0.000000 -0.991055
vn -0.239132 0.000000 -0.970987
vn -0.080471 -0.000000 0.996757
vn -0.080471 -0.000000 0.996757
vn 0.026644 -0.000000 0.999645
vn 0.026644 -0.000000 0.999645
vn -0.080471 -0.000000 0.996757
vn -0.187070 -0.000000 0.982347
vn -0.080471 -0.000000 0.996757
vn -0.187070 -0.000000 0.982347
vn -0.715857 0.000000 -0.698247
vn -0.715857 0.000000 -0.698247
vn -0.759380 0.000000 -0.650648
vn -0.759380 0.000000 -0.650648
vn 0.677646 0.000000 -0.735388
vn 0.677646 0.000000 -0.735388
vn 0.723644 0.000000 -0.690173
vn 0.723644 0.000000 -0.690173
vn -0.677326 -0.000000 0.735683
vn -0.677326 -0.000000 0.735683
vn -0.723043 -0.000000 0.690803
vn -0.723043 -0.000000 0.690803
vn 0.715553 -0.000000 0.698559
vn 0.715553 -0.000000 0.698559
vn 0.758814 -0.000000 0.651307
vn 0.758814 -0.000000 0.651307
vn -0.715857 0.000000 -0.698247
vn -0.628257 0.000000 -0.778006
vn -0.715857 0.000000 -0.698247
vn -0.628257 0.000000 -0.778006
vn -0.628257 0.000000 -0.778006
vn -0.539629 0.000000 -0.841903
vn -0.628257 0.000000 -0.778006
vn -0.539629 0.000000 -0.841903
vn -0.539629 0.000000 -0.841903
vn -0.443543 0.000000 -0.896253
vn -0.539629 0.000000 -0.841903
vn -0.443543 0.000000 -0.896253
vn -0.443543 0.000000 -0.896253
vn -0.342815 0.000000 -0.939403
vn -0.443543 0.000000 -0.896253
vn -0.342815 0.000000 -0.939403
vn -0.342815 0.000000 -0.939403
vn -0.239132 0.000000 -0.970987
vn -0.342815 0.000000 -0.939403
vn -0.239132 0.000000 -0.970987
vn 0.677646 0.000000 -0.735388
vn 0.585922 0.000000 -0.810367
vn 0.677646 0.000000 -0.735388
vn 0.585922 0.000000 -0.810367
vn 0.585922 0.000000 -0.810367
vn 0.494016 0.000000 -0.869453
vn 0.585922 0.000000 -0.810367
vn 0.494016 0.000000 -0.869453
vn 0.494016 0.000000 -0.869453
vn 0.395172 0.000000 -0.918607
vn 0.494016 0.000000 -0.869453
vn 0.395172 0.000000 -0.918607
vn 0.395172 0.000000 -0.918607
vn 0.292288 0.000000 -0.956330
vn 0.395172 0.000000 -0.918607
vn 0.292288 0.000000 -0.956330
vn 0.187070 0.000000 -0.982347
vn 0.187070 0.000000 -0.982347
vn 0.292288 0.000000 -0.956330
vn 0.292288 0.000000 -0.956330
vn 0.715553 -0.000000 0.698559
vn 0.628257 -0.000000 0.778006
vn 0.715553 -0.000000 0.698559
vn 0.628257 -0.000000 0.778006
vn 0.628257 -0.000000 0.778006
vn 0.539629 -0.000000 0.841903
vn 0.628257 -0.000000 0.778006
vn 0.539629 -0.000000 0.841903
vn 0.539629 -0.000000 0.841903
vn 0.443543 -0.000000 0.896253
vn 0.539629 -0.000000 0.841903
vn 0.443543 -0.000000 0.896253
vn 0.443543 -0.000000 0.896253
vn 0.342815 -0.000000 0.939403
vn 0.443543 -0.000000 0.896253
vn 0.342815 -0.000000 0.939403
vn 0.239131 -0.000000 0.970987
vn 0.239131 -0.000000 0.970987
vn 0.342815 -0.000000 0.939403
vn 0.342815 -0.000000 0.939403
vn -0.677326 -0.000000 0.735683
vn -0.585922 -0.000000 0.810367
vn -0.677326 -0.000000 0.735683
vn -0.585922 -0.000000 0.810367
vn -0.395172 -0.000000 0.918607
vn -0.494016 -0.000000 0.869453
vn -0.395172 -0.000000 0.918607
vn -0.494016 -0.000000 0.869453
vn -0.494016 -0.000000 0.869453
vn -0.585922 -0.000000 0.810367
vn -0.494016 -0.000000 0.869453
vn -0.585922 -0.000000 0.810367
vn -0.187070 -0.000000 0.982347
vn -0.292288 -0.000000 0.956330
vn -0.187070 -0.000000 0.982347
vn -0.292288 -0.000000 0.956330
vn -0.292288 -0.000000 0.956330
vn -0.395172 -0.000000 0.918607
vn -0.292288 -0.000000 0.956330
vn -0.395172 -0.000000 0.918607
vn -0.594594 0.000000 -0.804026
vn -0.594594 0.000000 -0.804026
vn -0.594594 0.000000 -0.804026
vn -0.594594 0.000000 -0.804026
vn 0.550921 0.000000 -0.834557
vn 0.550921 0.000000 -0.834557
vn 0.550921 0.000000 -0.834557
vn 0.550921 0.000000 -0.834557
vn 0.000000 1.000000 0.000000
vn 0.000000 1.000000 0.000000
vn 0.000000 1.000000 0.000000
vn 0.000000 1.000000 0.000000
vn 0.000000 1.000000 0.000000
vn 0.000000 1.000000 0.000000
vn 0.000000 1.000000 0.000000
vn 0.000000 1.000000 0.000000
vn 0.000000 1.000000 0.000000
vn 0.000000 1.000000 0.000000
vn 0.000000 1.000000 0.000000
vn 0.000000 1.000000 0.000000
vn 0.000000 1.000000 0.000000
vn 0.000000 1.000000 0.000000
vn 0.000000 1.000000 0.000000
vn 0.000000 1.000000 0.000000
vn 0.000000 1.000000 0.000000
vn 0.000000 1.000000 0.000000
vn 0.000000 1.000000 0.000000
vn 0.000000 1.000000 0.000000
vn 0.000000 1.000000 0.000000
vn 0.000000 1.000000 0.000000
vn 0.000000 1.000000 0.000000
vn 0.000000 1.000000 0.000000
vn 0.000000 1.000000 0.000000
vn 0.000000 1.000000 0.000000
vn 0.000000 1.000000 0.000000
vn 0.000000 1.000000 0.000000
vn 0.000000 1.000000 0.000000
vn 0.000000 1.000000 0.000000
vn 0.000000 1.000000 0.000000
vn 0.000000 1.000000 0.000000
vn 0.000000 1.000000 0.000000
vn 0.000000 1.000000 0.000000
vn 0.000000 1.000000 0.000000
vn 0.000000 1.000000 0.000000
vn 0.000000 1.000000 0.000000
vn 0.000000 1.000000 0.000000
vn 0.000000 1.000000 0.000000
vn 0.000000 1.000000 0.000000
vn 0.000000 1.000000 0.000000
vn 0.000000 1.000000 0.000000
vn 0.000000 1.000000 0.000000
vn 0.000000 1.000000 0.000000
vn 0.000000 1.000000 0.000000
vn 0.000000 1.000000 0.000000
vn 0.000000 1.000000 0.000000
vn 0.000000 1.000000 0.000000
vn 0.000000 1.000000 0.000000
vn 0.000000 1.000000 0.000000
vn 0.000000 1.000000 0.000000
vn 0.000000 1.000000 0.000000
vn 0.000000 1.000000 0.000000
vn 0.000000 1.000000 0.000000
vn 0.000000 1.000000 0.000000
vn 0.000000 1.000000 0.000000
vn 0.000000 1.000000 0.000000
vn 0.000000 1.000000 0.000000
vn 0.000000 1.000000 0.000000
vn 0.000000 1.000000 0.000000
vn 0.000000 1.000000 0.000000
vn 0.000000 1.000000 0.000000
vn 0.000000 1.000000 0.000000
vn 0.000000 1.000000 0.000000
vn -0.000000 -1.000000 0.000000
vn -0.000000 -1.000000 0.000000
vn -0.000000 -1.000000 0.000000
vn -0.000000 -1.000000 0.000000
vn -0.000000 -1.000000 0.000000
vn -0.000000 -1.000000 0.000000
vn 0.000000 -1.000000 -0.000000
vn 0.000000 -1.000000 -0.000000
vn 0.000000 -1.000000 -0.000000
vn 0.000000 -1.000000 -0.000000
vn -0.000000 -1.000000 -0.000000
vn -0.000000 -1.000000 -0.000000
vn -0.000000 -1.000000 -0.000000
vn -0.000000 -1.000000 -0.000000
vn -0.000000 -1.000000 -0.000000
vn -0.000000 -1.000000 -0.000000
vn -0.000000 -1.000000 -0.000000
vn -0.000000 -1.000000 -0.000000
vn 0.000000 -1.000000 -0.000000
vn 0.000000 -1.000000 -0.000000
vn 0.000000 -1.000000 -0.000000
vn 0.000000 -1.000000 -0.000000
vn 0.000000 -1.000000 -0.000000
vn 0.000000 -1.000000 -0.000000
vn 0.000000 -1.000000 -0.000000
vn 0.000000 -1.000000 -0.000000
vn 0.000000 -1.000000 -0.000000
vn 0.000000 -1.000000 -0.000000
vn 0.000000 -1.000000 -0.000000
vn 0.000000 -1.000000 -0.000000
vn 0.000000 -1.000000 -0.000000
vn 0.000000 -1.000000 -0.000000
vn 0.000000 -1.000000 -0.000000
vn 0.000000 -1.000000 -0.000000
vn 0.000000 -1.000000 -0.000000
vn 0.000000 -1.000000 -0.000000
vn 0.000000 -1.000000 -0.000000
vn 0.000000 -1.000000 -0.000000
vn 0.000000 -1.000000 -0.000000
vn 0.000000 -1.000000 -0.000000
vn 0.000000 -1.000000 -0.000000
vn 0.000000 -1.000000 -0.000000
vn 0.000000 -1.000000 -0.000000
vn 0.000000 -1.000000 -0.000000
vn 0.000000 -1.000000 -0.000000
vn 0.000000 -1.000000 -0.000000
vn 0.000000 -1.000000 -0.000000
vn 0.000000 -1.000000 -0.000000
vn 0.000000 -1.000000 -0.000000
vn -0.000000 -1.000000 -0.000000
vn 0.000000 -1.000000 -0.000000
vn -0.000000 -1.000000 -0.000000
vn -0.000000 -1.000000 -0.000000
vn -0.000000 -1.000000 -0.000000
vn -0.000000 -1.000000 -0.000000
vn -0.000000 -1.000000 -0.000000
vn -0.000000 -1.000000 -0.000000
vn -0.000000 -1.000000 0.000000
vn -0.000000 -1.000000 -0.000000
vn -0.000000 -1.000000 0.000000
vn -0.000000 -1.000000 0.000000
vn -0.000000 -1.000000 0.000000
vn -0.000000 -1.000000 0.000000
vn -0.000000 -1.000000 0.000000
s 1
g SM_Shelf_06d
f 51/103/1 23/104/2 44/106/3
f 44/106/3 23/104/2 1/105/4
s 2
f 23/104/5 50/107/6 1/105/7
f 1/105/7 50/107/6 47/108/8
s 3
f 65/69/9 37/70/10 58/72/11
f 58/72/11 37/70/10 3/71/12
s 4
f 37/70/13 64/73/14 3/71/15
f 3/71/15 64/73/14 61/74/16
s 5
f 16/109/17 2/110/18 44/106/19
f 44/106/19 2/110/18 51/103/20
s 6
f 16/109/21 43/111/22 2/110/23
f 2/110/23 43/111/22 54/112/24
s 7
f 30/75/25 4/76/26 58/72/27
f 58/72/27 4/76/26 65/69/28
s 8
f 30/75/29 57/77/30 4/76/31
f 4/76/31 57/77/30 68/78/32
s 9
f 24/114/33 13/115/34 8/113/35
f 8/113/35 13/115/34 5/116/36
s 10
f 17/118/37 20/119/38 6/117/39
f 6/117/39 20/119/38 7/120/40
s 11
f 38/80/41 27/81/42 12/79/43
f 12/79/43 27/81/42 9/82/44
s 12
f 31/84/45 34/85/46 10/83/47
f 10/83/47 34/85/46 11/86/48
s 13
f 24/114/49 52/121/50 13/115/51
f 13/115/51 52/121/50 41/122/52
s 14
f 52/121/53 25/123/54 41/122/55
f 41/122/55 25/123/54 14/124/56
s 15
f 25/123/57 53/125/58 14/124/59
f 14/124/59 53/125/58 42/126/60
s 16
f 53/125/61 26/127/62 42/126/63
f 42/126/63 26/127/62 15/128/64
s 17
f 26/127/65 54/112/66 15/128/67
f 15/128/67 54/112/66 43/111/68
s 18
f 17/118/69 45/129/70 20/119/71
f 20/119/71 45/129/70 48/130/72
s 19
f 45/129/73 18/131/74 48/130/75
f 48/130/75 18/131/74 21/132/76
s 20
f 18/131/77 46/133/78 21/132/79
f 21/132/79 46/133/78 49/134/80
s 21
f 46/133/81 19/135/82 49/134/83
f 49/134/83 19/135/82 22/136/84
s 22
f 47/108/85 50/107/86 19/135/87
f 19/135/87 50/107/86 22/136/88
s 23
f 31/84/89 59/87/90 34/85/91
f 34/85/91 59/87/90 62/88/92
s 24
f 59/87/93 32/89/94 62/88/95
f 62/88/95 32/89/94 35/90/96
s 25
f 32/89/97 60/91/98 35/90/99
f 35/90/99 60/91/98 63/92/100
s 26
f 60/91/101 33/93/102 63/92/103
f 63/92/103 33/93/102 36/94/104
s 27
f 61/74/105 64/73/106 33/93/107
f 33/93/107 64/73/106 36/94/108
s 28
f 38/80/109 66/95/110 27/81/111
f 27/81/111 66/95/110 55/96/112
s 29
f 56/97/113 28/98/114 67/100/115
f 67/100/115 28/98/114 39/99/116
s 30
f 28/98/117 55/96/118 39/99/119
f 39/99/119 55/96/118 66/95/120
s 31
f 57/77/121 29/101/122 68/78/123
f 68/78/123 29/101/122 40/102/124
s 32
f 29/101/125 56/97/126 40/102/127
f 40/102/127 56/97/126 67/100/128
s 33
f 9/32/129 6/143/130 12/25/131
f 12/25/131 6/143/130 7/144/132
s 34
f 11/33/133 8/141/134 10/24/135
f 10/24/135 8/141/134 5/142/136
s 35
f 10/4/137 5/6/138 31/3/139
f 31/3/139 5/6/138 13/9/140
s 36
f 31/3/141 13/9/142 59/10/143
f 59/10/143 13/9/142 41/12/144
s 37
f 59/10/145 41/12/146 32/13/147
f 32/13/147 41/12/146 14/15/148
s 38
f 32/13/149 14/15/150 60/17/151
f 60/17/151 14/15/150 42/19/152
s 39
f 60/17/153 42/19/154 33/23/155
f 33/23/155 42/19/154 15/26/156
s 40
f 33/23/157 15/26/158 61/31/159
f 61/31/159 15/26/158 43/34/160
s 41
f 61/31/161 43/34/162 3/38/163
f 3/38/163 43/34/162 16/40/164
s 42
f 3/38/165 16/40/166 58/42/167
f 58/42/167 16/40/166 44/44/168
s 43
f 44/44/169 1/47/170 58/42/171
f 58/42/171 1/47/170 30/45/172
s 44
f 1/47/173 47/51/174 30/45/175
f 30/45/175 47/51/174 57/49/176
s 45
f 47/51/177 19/55/178 57/49/179
f 57/49/179 19/55/178 29/53/180
s 46
f 19/55/181 46/59/182 29/53/183
f 29/53/183 46/59/182 56/57/184
s 47
f 46/59/185 18/63/186 56/57/187
f 56/57/187 18/63/186 28/62/188
s 48
f 18/63/189 45/67/190 28/62/191
f 28/62/191 45/67/190 55/64/192
s 49
f 45/67/193 17/138/194 55/64/195
f 55/64/195 17/138/194 27/137/196
s 50
f 17/138/197 6/140/198 27/137/199
f 27/137/199 6/140/198 9/139/200
s 51
f 12/2/201 7/5/202 38/1/203
f 38/1/203 7/5/202 20/7/204
s 52
f 38/1/205 20/7/206 66/8/207
f 66/8/207 20/7/206 48/11/208
s 53
f 66/8/209 48/11/210 39/14/211
f 39/14/211 48/11/210 21/16/212
s 54
f 39/14/213 21/16/214 67/18/215
f 67/18/215 21/16/214 49/20/216
s 55
f 67/18/217 49/20/218 40/21/219
f 40/21/219 49/20/218 22/22/220
s 56
f 40/21/221 22/22/222 68/27/223
f 68/27/223 22/22/222 50/28/224
s 57
f 68/27/225 50/28/226 4/29/227
f 4/29/227 50/28/226 23/30/228
s 58
f 4/29/229 23/30/230 65/35/231
f 65/35/231 23/30/230 51/36/232
s 59
f 51/36/233 2/39/234 65/35/235
f 65/35/235 2/39/234 37/37/236
s 60
f 2/39/237 54/43/238 37/37/239
f 37/37/239 54/43/238 64/41/240
s 61
f 54/43/241 26/48/242 64/41/243
f 64/41/243 26/48/242 36/46/244
s 62
f 26/48/245 53/52/246 36/46/247
f 36/46/247 53/52/246 63/50/248
s 63
f 53/52/249 25/56/250 63/50/251
f 63/50/251 25/56/250 35/54/252
s 64
f 25/56/253 52/60/254 35/54/255
f 35/54/255 52/60/254 62/58/256
s 65
f 52/60/257 24/65/258 62/58/259
f 62/58/259 24/65/258 34/61/260
s 66
f 24/65/261 8/68/262 34/61/263
f 34/61/263 8/68/262 11/66/264
